<?xml version="1.0" encoding="UTF-8" ?>
<!DOCTYPE svg PUBLIC "-//W3C//DTD SVG 1.1//EN" "http://www.w3.org/Graphics/SVG/1.1/DTD/svg11.dtd">
<svg width="137pt" height="154pt" viewBox="0 0 137 154" version="1.1" xmlns="http://www.w3.org/2000/svg">
<g id="#a09c8dfe">
<path fill="#a09c8d" stroke="#a09c8d" stroke-width="0.09375" opacity="1.00" d=" M 119.98 10.88 C 123.14 10.50 115.04 3.66 119.29 5.72 C 124.13 9.08 130.56 18.11 135.99 10.73 C 135.45 13.37 133.31 14.83 131.21 16.20 C 127.37 20.07 125.56 25.66 121.06 29.04 C 113.67 31.30 106.75 35.03 98.95 35.90 L 98.09 35.67 C 97.60 35.47 96.61 35.07 96.11 34.87 L 95.65 34.22 C 101.04 32.96 106.85 33.33 111.94 30.91 C 116.26 28.63 117.95 23.25 122.05 20.83 C 121.53 22.67 120.80 24.43 120.19 26.23 C 124.28 26.08 124.93 21.06 126.49 18.10 C 128.43 15.04 124.44 12.65 121.73 13.61 C 120.47 12.58 115.98 10.92 119.98 10.88 Z" />
</g>
<g id="#686553ff">
<path fill="#686553" stroke="#686553" stroke-width="0.09375" opacity="1.00" d=" M 42.83 19.78 C 43.59 15.14 43.17 9.30 46.90 5.77 C 46.30 10.99 44.02 15.91 43.95 21.20 C 43.67 20.84 43.11 20.13 42.83 19.78 Z" />
</g>
<g id="#70838cff">
<path fill="#70838c" stroke="#70838c" stroke-width="0.09375" opacity="1.00" d=" M 91.99 30.79 C 95.66 25.26 98.38 19.07 100.08 12.83 C 99.92 19.58 97.94 26.82 92.72 31.44 L 91.99 30.79 Z" />
</g>
<g id="#5b5b47ff">
<path fill="#5b5b47" stroke="#5b5b47" stroke-width="0.09375" opacity="1.00" d=" M 121.73 13.61 C 124.44 12.65 128.43 15.04 126.49 18.10 C 125.77 15.85 123.51 14.87 121.73 13.61 Z" />
</g>
<g id="#4d5245ff">
<path fill="#4d5245" stroke="#4d5245" stroke-width="0.09375" opacity="1.00" d=" M 121.06 29.04 C 125.56 25.66 127.37 20.07 131.21 16.20 C 129.50 21.46 127.47 28.20 121.06 29.04 Z" />
</g>
<g id="#8a8a87ff">
<path fill="#8a8a87" stroke="#8a8a87" stroke-width="0.09375" opacity="1.00" d=" M 79.10 30.80 C 78.46 25.56 81.10 20.86 83.97 16.75 C 84.34 21.50 79.52 25.40 82.59 30.35 C 83.67 35.01 89.13 32.43 91.99 30.79 C 91.99 38.74 80.24 37.72 79.10 30.80 Z" />
</g>
<g id="#81705bff">
<path fill="#81705b" stroke="#81705b" stroke-width="0.09375" opacity="1.00" d=" M 38.99 24.90 C 39.66 23.27 39.90 19.04 42.19 19.76 C 41.63 21.21 42.58 22.59 44.04 22.83 C 45.54 24.36 46.73 26.13 47.90 27.91 C 42.24 30.29 53.65 32.75 56.21 34.86 C 56.32 35.16 56.53 35.75 56.64 36.05 C 55.09 40.23 61.16 38.70 57.47 41.38 C 58.84 42.73 60.35 43.95 61.66 45.37 C 63.53 46.67 64.70 46.85 62.86 49.38 C 61.46 48.65 60.06 47.94 58.64 47.27 C 51.89 40.11 45.98 31.90 38.99 24.90 Z" />
</g>
<g id="#c9c1acff">
<path fill="#c9c1ac" stroke="#c9c1ac" stroke-width="0.09375" opacity="1.00" d=" M 42.19 19.76 L 42.83 19.78 C 43.11 20.13 43.67 20.84 43.95 21.20 C 43.97 21.60 44.02 22.42 44.04 22.83 C 42.58 22.59 41.63 21.21 42.19 19.76 Z" />
</g>
<g id="#7a7a6dfc">
<path fill="#7a7a6d" stroke="#7a7a6d" stroke-width="0.09375" opacity="1.00" d=" M 54.98 19.89 C 61.44 25.48 65.96 33.91 74.28 37.04 C 71.97 38.19 69.53 36.99 67.17 36.75 C 62.84 37.49 60.56 33.45 56.88 32.13 C 53.86 30.78 50.89 29.32 47.90 27.91 C 52.70 25.99 56.50 30.57 61.05 31.17 C 59.42 27.17 54.52 24.56 54.98 19.89 Z" />
</g>
<g id="#403f2fff">
<path fill="#403f2f" stroke="#403f2f" stroke-width="0.09375" opacity="1.00" d=" M 98.95 35.90 C 106.75 35.03 113.67 31.30 121.06 29.04 C 116.23 35.89 106.42 35.36 99.25 38.09 C 99.17 37.54 99.02 36.45 98.95 35.90 Z" />
</g>
<g id="#694d2eff">
<path fill="#694d2e" stroke="#694d2e" stroke-width="0.09375" opacity="1.00" d=" M 79.10 30.80 C 80.24 37.72 91.99 38.74 91.99 30.79 L 92.72 31.44 C 93.68 32.38 94.64 33.32 95.65 34.22 L 96.11 34.87 C 93.81 36.18 85.28 38.00 92.15 38.27 C 89.40 39.62 85.00 40.34 84.81 44.11 C 87.00 45.89 86.22 48.10 84.69 50.02 C 82.07 46.67 81.37 43.60 76.79 43.41 C 79.53 41.96 81.10 40.68 76.84 40.70 C 79.11 38.00 84.19 37.73 78.93 35.01 C 78.98 33.60 79.03 32.20 79.10 30.80 Z" />
</g>
<g id="#614928ff">
<path fill="#614928" stroke="#614928" stroke-width="0.09375" opacity="1.00" d=" M 56.88 32.13 C 60.56 33.45 62.84 37.49 67.17 36.75 C 66.41 37.99 66.14 39.14 67.87 39.55 C 65.97 40.53 63.78 42.48 61.69 40.77 C 61.85 37.64 59.32 36.51 56.64 36.05 C 56.53 35.75 56.32 35.16 56.21 34.86 C 58.74 35.70 57.24 33.43 56.88 32.13 Z" />
</g>
<g id="#b88a5bff">
<path fill="#b88a5b" stroke="#b88a5b" stroke-width="0.09375" opacity="1.00" d=" M 74.28 37.04 C 75.91 36.55 77.42 35.76 78.93 35.01 C 84.19 37.73 79.11 38.00 76.84 40.70 C 81.10 40.68 79.53 41.96 76.79 43.41 C 76.53 43.55 76.02 43.83 75.76 43.97 C 72.65 37.66 67.57 43.10 62.91 44.38 C 62.30 43.26 61.57 42.10 61.69 40.77 C 63.78 42.48 65.97 40.53 67.87 39.55 C 66.14 39.14 66.41 37.99 67.17 36.75 C 69.53 36.99 71.97 38.19 74.28 37.04 Z" />
</g>
<g id="#d8b88bff">
<path fill="#d8b88b" stroke="#d8b88b" stroke-width="0.09375" opacity="1.00" d=" M 92.15 38.27 C 85.28 38.00 93.81 36.18 96.11 34.87 C 96.61 35.07 97.60 35.47 98.09 35.67 C 95.22 35.30 96.91 36.84 97.88 38.13 C 96.63 40.42 92.57 47.16 92.74 40.96 C 90.14 42.39 88.19 45.88 84.81 44.11 C 85.00 40.34 89.40 39.62 92.15 38.27 Z" />
</g>
<g id="#dcb896ff">
<path fill="#dcb896" stroke="#dcb896" stroke-width="0.09375" opacity="1.00" d=" M 56.64 36.05 C 59.32 36.51 61.85 37.64 61.69 40.77 C 61.57 42.10 62.30 43.26 62.91 44.38 C 62.60 44.63 61.97 45.12 61.66 45.37 C 60.35 43.95 58.84 42.73 57.47 41.38 C 61.16 38.70 55.09 40.23 56.64 36.05 Z" />
</g>
<g id="#8a6e49ff">
<path fill="#8a6e49" stroke="#8a6e49" stroke-width="0.09375" opacity="1.00" d=" M 97.88 38.13 C 96.91 36.84 95.22 35.30 98.09 35.67 L 98.95 35.90 C 99.02 36.45 99.17 37.54 99.25 38.09 C 98.17 42.62 94.93 47.11 90.21 48.15 C 86.65 47.38 84.97 50.29 85.25 53.82 C 84.09 48.52 77.61 50.43 76.63 54.70 C 74.15 50.87 70.99 55.46 68.71 57.11 C 71.21 59.47 74.48 60.31 77.15 57.75 C 80.53 58.81 84.69 57.83 85.25 53.82 C 86.04 57.69 84.86 62.87 87.93 65.72 C 88.63 67.10 86.86 68.62 87.95 69.96 C 84.85 73.23 87.72 79.20 81.91 80.25 C 80.34 78.90 78.25 82.09 78.62 78.81 C 78.50 76.59 77.12 74.28 74.99 73.49 C 70.59 76.61 65.72 72.38 64.64 67.81 C 67.32 67.58 68.55 71.15 70.96 72.09 C 71.98 70.54 71.18 68.69 71.09 67.01 C 73.16 68.55 75.55 69.61 78.10 70.08 C 77.32 66.11 74.98 61.16 70.30 61.45 C 66.24 60.27 68.89 54.58 63.94 54.92 C 64.20 54.46 64.73 53.53 64.99 53.07 C 67.83 53.38 70.07 53.00 67.61 50.31 C 65.88 52.99 63.99 51.68 62.86 49.38 C 67.68 47.29 73.00 47.99 78.04 47.05 C 77.34 45.98 76.55 44.98 75.76 43.97 C 76.02 43.83 76.53 43.55 76.79 43.41 C 81.37 43.60 82.07 46.67 84.69 50.02 C 86.22 48.10 87.00 45.89 84.81 44.11 C 88.19 45.88 90.14 42.39 92.74 40.96 C 92.57 47.16 96.63 40.42 97.88 38.13 M 79.91 72.96 C 79.91 74.57 79.72 78.90 82.39 77.44 C 85.95 76.73 80.93 74.26 79.91 72.96 Z" />
</g>
<g id="#6c3a15ff">
<path fill="#6c3a15" stroke="#6c3a15" stroke-width="0.09375" opacity="1.00" d=" M 62.91 44.38 C 67.57 43.10 72.65 37.66 75.76 43.97 C 76.55 44.98 77.34 45.98 78.04 47.05 C 73.00 47.99 67.68 47.29 62.86 49.38 C 64.70 46.85 63.53 46.67 61.66 45.37 C 61.97 45.12 62.60 44.63 62.91 44.38 Z" />
</g>
<g id="#4a2f18ff">
<path fill="#4a2f18" stroke="#4a2f18" stroke-width="0.09375" opacity="1.00" d=" M 58.64 47.27 C 60.06 47.94 61.46 48.65 62.86 49.38 C 63.99 51.68 65.88 52.99 67.61 50.31 C 70.07 53.00 67.83 53.38 64.99 53.07 C 63.61 52.91 62.25 52.96 60.89 53.21 C 59.61 51.46 59.04 49.37 58.64 47.27 Z" />
</g>
<g id="#5a422cff">
<path fill="#5a422c" stroke="#5a422c" stroke-width="0.09375" opacity="1.00" d=" M 85.25 53.82 C 84.97 50.29 86.65 47.38 90.21 48.15 C 89.82 48.37 89.04 48.81 88.66 49.03 C 88.64 50.29 88.61 52.81 88.60 54.07 C 87.31 57.98 89.16 61.53 90.66 65.04 C 89.75 65.25 88.84 65.48 87.93 65.72 C 84.86 62.87 86.04 57.69 85.25 53.82 Z" />
</g>
<g id="#c5b7abff">
<path fill="#c5b7ab" stroke="#c5b7ab" stroke-width="0.09375" opacity="1.00" d=" M 88.60 54.07 C 88.61 52.81 88.64 50.29 88.66 49.03 C 89.89 50.49 89.60 52.58 88.60 54.07 Z" />
</g>
<g id="#b4a279ff">
<path fill="#b4a279" stroke="#b4a279" stroke-width="0.09375" opacity="1.00" d=" M 76.63 54.70 C 77.61 50.43 84.09 48.52 85.25 53.82 C 84.69 57.83 80.53 58.81 77.15 57.75 C 74.48 60.31 71.21 59.47 68.71 57.11 C 70.99 55.46 74.15 50.87 76.63 54.70 Z" />
</g>
<g id="#d6bfa5ff">
<path fill="#d6bfa5" stroke="#d6bfa5" stroke-width="0.09375" opacity="1.00" d=" M 60.89 53.21 C 62.25 52.96 63.61 52.91 64.99 53.07 C 64.73 53.53 64.20 54.46 63.94 54.92 C 63.47 54.94 62.54 54.99 62.07 55.01 C 61.77 54.56 61.18 53.66 60.89 53.21 Z" />
</g>
<g id="#483823ff">
<path fill="#483823" stroke="#483823" stroke-width="0.09375" opacity="1.00" d=" M 62.07 55.01 C 62.54 54.99 63.47 54.94 63.94 54.92 C 68.89 54.58 66.24 60.27 70.30 61.45 C 74.98 61.16 77.32 66.11 78.10 70.08 C 75.55 69.61 73.16 68.55 71.09 67.01 C 66.46 64.79 63.21 60.92 62.31 55.81 L 62.07 55.01 Z" />
</g>
<g id="#beb29aff">
<path fill="#beb29a" stroke="#beb29a" stroke-width="0.09375" opacity="1.00" d=" M 62.31 55.81 C 63.21 60.92 66.46 64.79 71.09 67.01 C 71.18 68.69 71.98 70.54 70.96 72.09 C 68.55 71.15 67.32 67.58 64.64 67.81 C 62.04 67.42 62.54 63.78 61.75 61.85 C 61.97 59.84 62.16 57.83 62.31 55.81 Z" />
</g>
<g id="#4f2e17ff">
<path fill="#4f2e17" stroke="#4f2e17" stroke-width="0.09375" opacity="1.00" d=" M 58.83 71.82 C 59.29 68.30 58.81 64.37 61.75 61.85 C 62.54 63.78 62.04 67.42 64.64 67.81 C 65.72 72.38 70.59 76.61 74.99 73.49 C 77.12 74.28 78.50 76.59 78.62 78.81 C 80.35 85.31 75.70 91.78 77.91 98.74 C 77.44 98.79 76.50 98.90 76.03 98.95 C 74.71 97.06 73.24 101.42 72.98 102.77 C 71.59 105.61 73.02 108.39 74.12 111.03 C 63.64 108.64 65.03 93.91 62.02 87.15 C 60.77 90.63 58.38 90.19 58.22 86.21 C 64.77 86.11 53.68 83.83 57.90 78.84 C 58.33 76.51 58.64 74.17 58.83 71.82 Z" />
</g>
<g id="#3a2a1cff">
<path fill="#3a2a1c" stroke="#3a2a1c" stroke-width="0.09375" opacity="1.00" d=" M 87.93 65.72 C 88.84 65.48 89.75 65.25 90.66 65.04 C 91.50 68.04 93.54 70.43 95.29 72.94 C 94.75 74.32 93.93 75.97 94.92 77.36 L 94.87 77.97 C 94.56 80.71 94.25 83.45 94.03 86.20 C 91.94 95.46 95.60 104.97 93.06 114.11 C 91.44 108.05 86.73 115.80 85.59 110.86 C 86.74 106.12 90.55 101.49 87.65 96.64 C 85.16 91.70 93.93 82.71 84.97 82.65 C 86.40 78.70 89.96 74.11 87.95 69.96 C 86.86 68.62 88.63 67.10 87.93 65.72 Z" />
</g>
<g id="#623717ff">
<path fill="#623717" stroke="#623717" stroke-width="0.09375" opacity="1.00" d=" M 87.95 69.96 C 89.96 74.11 86.40 78.70 84.97 82.65 C 93.93 82.71 85.16 91.70 87.65 96.64 C 90.55 101.49 86.74 106.12 85.59 110.86 C 82.40 115.34 78.24 110.19 74.12 111.03 C 73.02 108.39 71.59 105.61 72.98 102.77 C 76.45 104.98 78.81 108.45 81.84 111.17 C 80.16 107.26 82.08 103.73 83.75 109.21 C 87.40 103.21 85.46 100.18 79.40 99.35 C 78.28 103.66 76.41 103.19 76.03 98.95 C 76.50 98.90 77.44 98.79 77.91 98.74 C 75.70 91.78 80.35 85.31 78.62 78.81 C 78.25 82.09 80.34 78.90 81.91 80.25 C 87.72 79.20 84.85 73.23 87.95 69.96 Z" />
</g>
<g id="#98591cff">
<path fill="#98591c" stroke="#98591c" stroke-width="0.09375" opacity="1.00" d=" M 53.94 80.85 C 56.31 78.27 58.88 75.69 58.83 71.82 C 58.64 74.17 58.33 76.51 57.90 78.84 C 54.63 81.87 57.52 87.01 55.09 90.81 C 58.82 91.30 60.51 95.16 55.84 95.79 C 58.91 95.61 59.27 96.38 56.84 98.15 C 61.19 98.81 61.71 101.93 62.55 105.31 C 70.40 108.84 69.30 117.10 69.99 124.15 C 68.39 127.74 68.16 131.50 69.46 135.16 C 68.52 140.51 69.76 144.16 75.15 143.31 C 74.54 146.74 75.63 150.60 79.31 151.69 C 78.24 152.57 77.05 153.28 75.87 154.00 L 75.26 154.00 C 74.98 153.76 74.42 153.28 74.14 153.03 C 73.62 150.73 72.74 148.54 71.95 146.33 C 76.86 147.24 71.59 143.14 69.08 144.11 C 67.72 143.33 70.16 138.08 66.34 139.45 C 60.38 142.05 62.97 128.93 59.32 130.96 C 59.52 128.00 59.80 124.60 57.87 122.12 C 54.18 122.61 56.63 128.46 56.56 131.33 C 52.78 130.32 54.18 126.33 54.22 123.27 C 54.53 121.88 54.82 120.48 55.04 119.08 C 62.20 123.22 53.85 114.12 59.76 112.78 C 64.90 110.16 66.68 119.94 64.35 121.53 C 60.25 119.78 62.29 125.24 63.54 127.14 C 64.95 122.64 69.51 119.25 67.40 113.63 C 66.00 111.60 64.66 105.00 61.60 108.39 C 60.24 107.19 58.96 105.88 57.36 105.01 C 56.91 107.23 56.31 109.43 55.11 111.38 C 53.85 109.17 54.53 106.72 54.45 104.35 C 52.45 100.68 48.38 97.57 49.45 93.00 C 50.57 90.16 45.68 87.00 44.66 90.65 C 42.67 96.78 35.14 97.97 32.50 103.46 C 24.95 102.53 25.97 108.50 23.97 113.07 C 26.13 111.87 29.29 109.57 27.86 113.85 C 25.06 118.68 22.12 123.45 19.25 128.25 C 18.80 124.66 13.47 120.51 15.37 118.23 C 11.68 114.24 5.57 104.69 0.69 109.93 C 2.38 106.79 3.71 103.39 6.03 100.65 C 5.58 108.43 15.28 107.30 18.19 113.03 C 24.82 113.73 17.63 108.71 21.64 105.78 C 20.67 102.90 21.09 95.08 25.48 98.46 C 30.48 100.28 33.66 92.46 38.84 94.46 C 41.10 91.67 41.46 89.07 35.81 90.17 C 40.16 89.11 44.52 88.06 48.88 87.09 C 52.83 87.74 53.44 83.75 53.94 80.85 Z" />
</g>
<g id="#bfa37aff">
<path fill="#bfa37a" stroke="#bfa37a" stroke-width="0.09375" opacity="1.00" d=" M 79.91 72.96 C 80.93 74.26 85.95 76.73 82.39 77.44 C 79.72 78.90 79.91 74.57 79.91 72.96 Z" />
</g>
<g id="#9a9a93ff">
<path fill="#9a9a93" stroke="#9a9a93" stroke-width="0.09375" opacity="1.00" d=" M 95.29 72.94 C 96.76 74.15 96.38 76.31 94.92 77.36 C 93.93 75.97 94.75 74.32 95.29 72.94 Z" />
</g>
<g id="#706f66ff">
<path fill="#706f66" stroke="#706f66" stroke-width="0.09375" opacity="1.00" d=" M 94.03 86.20 C 94.25 83.45 94.56 80.71 94.87 77.97 C 94.75 80.73 94.39 83.46 94.03 86.20 Z" />
</g>
<g id="#743d15ff">
<path fill="#743d15" stroke="#743d15" stroke-width="0.09375" opacity="1.00" d=" M 55.09 90.81 C 57.52 87.01 54.63 81.87 57.90 78.84 C 53.68 83.83 64.77 86.11 58.22 86.21 C 58.38 90.19 60.77 90.63 62.02 87.15 C 65.03 93.91 63.64 108.64 74.12 111.03 C 71.74 115.26 73.95 120.61 69.99 124.15 C 69.30 117.10 70.40 108.84 62.55 105.31 C 61.71 101.93 61.19 98.81 56.84 98.15 C 59.27 96.38 58.91 95.61 55.84 95.79 C 60.51 95.16 58.82 91.30 55.09 90.81 Z" />
</g>
<g id="#c09c64ff">
<path fill="#c09c64" stroke="#c09c64" stroke-width="0.09375" opacity="1.00" d=" M 48.88 87.09 C 50.51 84.97 52.11 82.81 53.94 80.85 C 53.44 83.75 52.83 87.74 48.88 87.09 Z" />
</g>
<g id="#813f0eff">
<path fill="#813f0e" stroke="#813f0e" stroke-width="0.09375" opacity="1.00" d=" M 44.66 90.65 C 45.68 87.00 50.57 90.16 49.45 93.00 C 48.38 97.57 52.45 100.68 54.45 104.35 C 54.53 106.72 53.85 109.17 55.11 111.38 C 55.09 113.94 55.07 116.51 55.04 119.08 C 54.82 120.48 54.53 121.88 54.22 123.27 C 53.93 121.92 53.63 120.59 53.37 119.24 C 55.04 110.46 49.75 98.66 39.93 97.94 C 39.60 101.11 41.50 103.64 44.82 103.26 C 44.54 107.91 36.00 109.12 40.44 114.58 C 45.00 117.66 38.62 124.85 37.77 118.33 C 35.18 119.66 32.12 121.37 29.35 119.52 C 28.68 123.27 23.92 123.19 22.80 126.68 C 22.37 130.12 21.07 132.24 19.25 128.25 C 22.12 123.45 25.06 118.68 27.86 113.85 C 29.29 109.57 26.13 111.87 23.97 113.07 C 25.97 108.50 24.95 102.53 32.50 103.46 C 35.14 97.97 42.67 96.78 44.66 90.65 Z" />
</g>
<g id="#c07924ff">
<path fill="#c07924" stroke="#c07924" stroke-width="0.09375" opacity="1.00" d=" M 20.15 93.98 C 25.37 92.71 30.59 91.41 35.81 90.17 C 41.46 89.07 41.10 91.67 38.84 94.46 C 33.66 92.46 30.48 100.28 25.48 98.46 C 21.09 95.08 20.67 102.90 21.64 105.78 C 17.63 108.71 24.82 113.73 18.19 113.03 C 15.28 107.30 5.58 108.43 6.03 100.65 C 6.28 100.45 6.78 100.03 7.03 99.83 C 10.32 99.52 11.36 107.66 12.53 103.04 C 11.90 99.22 18.75 99.89 16.10 94.99 C 17.19 98.00 18.78 95.17 20.15 93.98 Z" />
</g>
<g id="#e4a74bff">
<path fill="#e4a74b" stroke="#e4a74b" stroke-width="0.09375" opacity="1.00" d=" M 7.03 99.83 C 10.83 96.66 14.73 93.10 20.15 93.98 C 18.78 95.17 17.19 98.00 16.10 94.99 C 18.75 99.89 11.90 99.22 12.53 103.04 C 11.36 107.66 10.32 99.52 7.03 99.83 Z" />
</g>
<g id="#6c300cff">
<path fill="#6c300c" stroke="#6c300c" stroke-width="0.09375" opacity="1.00" d=" M 39.93 97.94 C 49.75 98.66 55.04 110.46 53.37 119.24 C 51.35 116.63 51.75 110.27 47.28 110.94 C 48.72 117.61 43.22 122.72 40.84 128.46 C 34.74 128.88 28.39 129.64 22.80 126.68 C 23.92 123.19 28.68 123.27 29.35 119.52 C 32.12 121.37 35.18 119.66 37.77 118.33 C 38.62 124.85 45.00 117.66 40.44 114.58 C 36.00 109.12 44.54 107.91 44.82 103.26 C 41.50 103.64 39.60 101.11 39.93 97.94 Z" />
</g>
<g id="#814b1cff">
<path fill="#814b1c" stroke="#814b1c" stroke-width="0.09375" opacity="1.00" d=" M 72.98 102.77 C 73.24 101.42 74.71 97.06 76.03 98.95 C 76.41 103.19 78.28 103.66 79.40 99.35 C 85.46 100.18 87.40 103.21 83.75 109.21 C 82.08 103.73 80.16 107.26 81.84 111.17 C 78.81 108.45 76.45 104.98 72.98 102.77 Z" />
</g>
<g id="#af6e2bff">
<path fill="#af6e2b" stroke="#af6e2b" stroke-width="0.09375" opacity="1.00" d=" M 57.36 105.01 C 58.96 105.88 60.24 107.19 61.60 108.39 C 64.66 105.00 66.00 111.60 67.40 113.63 C 69.51 119.25 64.95 122.64 63.54 127.14 C 62.29 125.24 60.25 119.78 64.35 121.53 C 66.68 119.94 64.90 110.16 59.76 112.78 C 53.85 114.12 62.20 123.22 55.04 119.08 C 55.07 116.51 55.09 113.94 55.11 111.38 C 56.31 109.43 56.91 107.23 57.36 105.01 Z" />
</g>
<g id="#693513ff">
<path fill="#693513" stroke="#693513" stroke-width="0.09375" opacity="1.00" d=" M 0.69 109.93 C 5.57 104.69 11.68 114.24 15.37 118.23 C 13.47 120.51 18.80 124.66 19.25 128.25 C 21.07 132.24 22.37 130.12 22.80 126.68 C 23.09 139.05 38.97 131.22 45.38 138.11 C 44.53 135.05 50.61 133.59 49.11 137.65 C 45.55 136.24 47.84 139.54 48.43 141.39 C 45.61 143.73 41.63 142.84 38.24 142.76 C 32.97 140.83 28.16 137.89 22.95 135.84 C 23.93 137.45 24.82 139.59 26.99 139.70 C 26.80 143.02 22.38 148.79 28.44 147.90 C 26.46 150.54 24.52 154.49 20.54 152.63 C 13.93 153.92 15.52 146.73 12.41 143.62 C 9.24 135.34 1.57 129.61 0.00 120.63 L 0.00 110.58 L 0.69 109.93 M 13.11 136.41 C 11.75 136.87 11.77 138.32 12.93 139.03 C 16.52 142.66 17.40 149.60 22.79 150.86 C 25.92 148.31 23.10 144.84 20.15 143.78 C 22.47 139.09 13.96 139.58 13.11 136.41 Z" />
</g>
<g id="#4f250fff">
<path fill="#4f250f" stroke="#4f250f" stroke-width="0.09375" opacity="1.00" d=" M 47.28 110.94 C 51.75 110.27 51.35 116.63 53.37 119.24 C 53.63 120.59 53.93 121.92 54.22 123.27 C 54.18 126.33 52.78 130.32 56.56 131.33 C 56.63 128.46 54.18 122.61 57.87 122.12 C 59.80 124.60 59.52 128.00 59.32 130.96 C 59.21 132.29 60.23 134.46 58.01 134.11 C 52.84 130.78 54.40 141.48 48.43 141.39 C 47.84 139.54 45.55 136.24 49.11 137.65 C 50.61 133.59 44.53 135.05 45.38 138.11 C 38.97 131.22 23.09 139.05 22.80 126.68 C 28.39 129.64 34.74 128.88 40.84 128.46 C 43.22 122.72 48.72 117.61 47.28 110.94 Z" />
</g>
<g id="#4d2b10ff">
<path fill="#4d2b10" stroke="#4d2b10" stroke-width="0.09375" opacity="1.00" d=" M 74.12 111.03 C 78.24 110.19 82.40 115.34 85.59 110.86 C 86.73 115.80 91.44 108.05 93.06 114.11 C 91.91 115.77 90.36 117.08 88.96 118.51 C 88.91 117.07 88.94 115.62 88.94 114.18 C 83.32 117.51 79.27 122.98 76.74 128.90 C 79.98 127.60 83.39 126.39 86.05 124.04 C 85.99 125.63 85.98 127.22 85.91 128.81 C 81.55 133.98 77.31 141.78 81.30 148.21 C 81.16 149.63 80.66 151.02 79.31 151.69 C 75.63 150.60 74.54 146.74 75.15 143.31 C 75.88 139.63 76.82 135.51 74.78 132.07 C 72.54 131.64 70.10 132.92 69.46 135.16 C 68.16 131.50 68.39 127.74 69.99 124.15 C 73.95 120.61 71.74 115.26 74.12 111.03 M 78.37 117.46 C 75.09 120.54 72.67 124.56 71.97 129.04 C 76.01 129.12 81.81 119.56 78.37 117.46 Z" />
</g>
<g id="#76471eff">
<path fill="#76471e" stroke="#76471e" stroke-width="0.09375" opacity="1.00" d=" M 76.74 128.90 C 79.27 122.98 83.32 117.51 88.94 114.18 C 88.94 115.62 88.91 117.07 88.96 118.51 C 88.79 120.70 87.27 122.34 86.05 124.04 C 83.39 126.39 79.98 127.60 76.74 128.90 Z" />
</g>
<g id="#7b4b26ff">
<path fill="#7b4b26" stroke="#7b4b26" stroke-width="0.09375" opacity="1.00" d=" M 78.37 117.46 C 81.81 119.56 76.01 129.12 71.97 129.04 C 72.67 124.56 75.09 120.54 78.37 117.46 Z" />
</g>
<g id="#78633fff">
<path fill="#78633f" stroke="#78633f" stroke-width="0.09375" opacity="1.00" d=" M 81.30 148.21 C 77.31 141.78 81.55 133.98 85.91 128.81 C 86.45 135.83 80.49 140.81 81.30 148.21 Z" />
</g>
<g id="#6b3c19ff">
<path fill="#6b3c19" stroke="#6b3c19" stroke-width="0.09375" opacity="1.00" d=" M 59.32 130.96 C 62.97 128.93 60.38 142.05 66.34 139.45 C 70.16 138.08 67.72 143.33 69.08 144.11 C 71.59 143.14 76.86 147.24 71.95 146.33 C 72.74 148.54 73.62 150.73 74.14 153.03 C 72.52 152.96 70.44 152.94 70.23 150.85 C 68.64 143.57 57.80 141.82 58.01 134.11 C 60.23 134.46 59.21 132.29 59.32 130.96 Z" />
</g>
<g id="#905426ff">
<path fill="#905426" stroke="#905426" stroke-width="0.09375" opacity="1.00" d=" M 13.11 136.41 C 13.96 139.58 22.47 139.09 20.15 143.78 C 23.10 144.84 25.92 148.31 22.79 150.86 C 17.40 149.60 16.52 142.66 12.93 139.03 C 11.77 138.32 11.75 136.87 13.11 136.41 Z" />
</g>
<g id="#41230eff">
<path fill="#41230e" stroke="#41230e" stroke-width="0.09375" opacity="1.00" d=" M 22.95 135.84 C 28.16 137.89 32.97 140.83 38.24 142.76 C 33.25 141.14 31.02 144.84 28.44 147.90 C 22.38 148.79 26.80 143.02 26.99 139.70 C 24.82 139.59 23.93 137.45 22.95 135.84 Z" />
</g>
</svg>
