<?xml version="1.0" encoding="UTF-8" standalone="no"?>
<svg width="32px" height="38px" viewBox="0 0 32 38" version="1.1" xmlns="http://www.w3.org/2000/svg" xmlns:xlink="http://www.w3.org/1999/xlink">
    <!-- Generator: Sketch 39.1 (31720) - http://www.bohemiancoding.com/sketch -->
    <title>TT_Guarantee_Icon_orange-01</title>
    <desc>Created with Sketch.</desc>
    <defs></defs>
    <g id="Visual-Design-V1" stroke="none" stroke-width="1" fill="none" fill-rule="evenodd">
        <g id="Categories-Wireframe-(Medium)" transform="translate(-369.000000, -863.000000)">
            <g id="Group-13" transform="translate(361.000000, 858.000000)">
                <g id="TT_Guarantee_Icon_orange-01" transform="translate(8.000000, 5.000000)">
                    <g id="Layer_1">
                        <path d="M16,2 L30,4.6 L30,21 C30,24.8 28.1,28.3 24.2,31.4 C21,34 17.4,35.5 16,36 C14.6,35.5 11,34 7.8,31.4 C4,28.4 2,24.9 2,21 L2,4.6 L16,2 L16,2 Z M16,0 L15.6,0 L1.6,2.6 C0.7,2.8 0,3.7 0,4.6 L0,21 C0,31.5 12.3,36.7 15.3,37.8 C15.5,38 15.8,38 16,38 C16.2,38 16.5,38 16.7,37.9 C19.7,36.8 32,31.6 32,21 L32,4.6 C32,3.6 31.3,2.8 30.4,2.6 L16.4,0 L16,0 L16,0 L16,0 Z" id="Shape" fill="#F27802"></path>
                        <path d="M28,6.3 L28,21.1 C28,24.3 26.3,27.3 23,30 C20.5,32 17.6,33.4 16,34 C14.4,33.4 11.6,32 9,30 C5.7,27.3 4,24.3 4,21.1 L4,6.3 L16,4 L28,6.3 L28,6.3 Z" id="Shape" fill="#F27802"></path>
                        <path d="M4,6.3 L4,21.1 C4,23.4 4.9,25.6 6.6,27.7 L28,6.3 L16,4 L4,6.3 L4,6.3 Z" id="Shape" fill="#FFFFFF" opacity="0.2"></path>
                    </g>
                </g>
            </g>
        </g>
    </g>
</svg>